<mxfile host="app.diagrams.net" modified="2023-11-28T06:41:49.210Z" agent="Mozilla/5.0 (Macintosh; Intel Mac OS X 10_15_7) AppleWebKit/537.36 (KHTML, like Gecko) Chrome/119.0.0.0 Safari/537.36" etag="kofGX7opJ9PXFhL-4s1W" version="22.1.4" type="device">
  <diagram name="第 1 页" id="vSIhH5739OCM4GOg3ttG">
    <mxGraphModel dx="516" dy="316" grid="0" gridSize="10" guides="1" tooltips="1" connect="1" arrows="1" fold="1" page="1" pageScale="1" pageWidth="827" pageHeight="1169" math="0" shadow="0">
      <root>
        <mxCell id="0" />
        <mxCell id="1" parent="0" />
        <mxCell id="WWQjKdEzX1iUmeXFVELN-3" value="Source" style="text;html=1;align=center;verticalAlign=middle;resizable=0;points=[];autosize=1;strokeColor=none;fillColor=none;fontFamily=Times New Roman;fontSize=8;" vertex="1" parent="1">
          <mxGeometry x="73" y="187" width="40" height="22" as="geometry" />
        </mxCell>
        <mxCell id="WWQjKdEzX1iUmeXFVELN-4" value="" style="endArrow=none;html=1;rounded=0;" edge="1" parent="1">
          <mxGeometry width="50" height="50" relative="1" as="geometry">
            <mxPoint x="120" y="239.89000000000001" as="sourcePoint" />
            <mxPoint x="427" y="240" as="targetPoint" />
          </mxGeometry>
        </mxCell>
        <mxCell id="WWQjKdEzX1iUmeXFVELN-5" value="" style="endArrow=none;html=1;rounded=0;" edge="1" parent="1">
          <mxGeometry width="50" height="50" relative="1" as="geometry">
            <mxPoint x="120" y="278.8" as="sourcePoint" />
            <mxPoint x="428" y="279" as="targetPoint" />
          </mxGeometry>
        </mxCell>
        <mxCell id="WWQjKdEzX1iUmeXFVELN-6" value="" style="endArrow=none;html=1;rounded=0;" edge="1" parent="1">
          <mxGeometry width="50" height="50" relative="1" as="geometry">
            <mxPoint x="120" y="318.8" as="sourcePoint" />
            <mxPoint x="429" y="319" as="targetPoint" />
          </mxGeometry>
        </mxCell>
        <mxCell id="WWQjKdEzX1iUmeXFVELN-7" value="Destination" style="text;html=1;align=center;verticalAlign=middle;resizable=0;points=[];autosize=1;strokeColor=none;fillColor=none;fontFamily=Times New Roman;fontSize=8;" vertex="1" parent="1">
          <mxGeometry x="65.5" y="228" width="55" height="22" as="geometry" />
        </mxCell>
        <mxCell id="WWQjKdEzX1iUmeXFVELN-9" value="Other A" style="text;html=1;align=center;verticalAlign=middle;resizable=0;points=[];autosize=1;strokeColor=none;fillColor=none;fontFamily=Times New Roman;fontSize=8;" vertex="1" parent="1">
          <mxGeometry x="71" y="268" width="44" height="22" as="geometry" />
        </mxCell>
        <mxCell id="WWQjKdEzX1iUmeXFVELN-10" value="Other B" style="text;html=1;align=center;verticalAlign=middle;resizable=0;points=[];autosize=1;strokeColor=none;fillColor=none;fontFamily=Times New Roman;fontSize=8;" vertex="1" parent="1">
          <mxGeometry x="71" y="308" width="44" height="22" as="geometry" />
        </mxCell>
        <mxCell id="WWQjKdEzX1iUmeXFVELN-13" value="" style="endArrow=none;dashed=1;html=1;dashPattern=1 3;strokeWidth=2;rounded=0;" edge="1" parent="1">
          <mxGeometry width="50" height="50" relative="1" as="geometry">
            <mxPoint x="160" y="330" as="sourcePoint" />
            <mxPoint x="160" y="180" as="targetPoint" />
          </mxGeometry>
        </mxCell>
        <mxCell id="WWQjKdEzX1iUmeXFVELN-17" value="" style="shape=parallelogram;perimeter=parallelogramPerimeter;whiteSpace=wrap;html=1;fixedSize=1;fillColor=#CCE5FF;rotation=-90;direction=north;horizontal=0;flipH=1;" vertex="1" parent="1">
          <mxGeometry x="180" y="180" width="40" height="80" as="geometry" />
        </mxCell>
        <mxCell id="WWQjKdEzX1iUmeXFVELN-19" value="" style="endArrow=none;html=1;rounded=0;" edge="1" parent="1">
          <mxGeometry width="50" height="50" relative="1" as="geometry">
            <mxPoint x="120" y="200" as="sourcePoint" />
            <mxPoint x="426" y="200" as="targetPoint" />
          </mxGeometry>
        </mxCell>
        <mxCell id="WWQjKdEzX1iUmeXFVELN-22" value="Data" style="text;html=1;align=center;verticalAlign=middle;resizable=0;points=[];autosize=1;strokeColor=none;fillColor=none;fontFamily=Times New Roman;fontSize=8;" vertex="1" parent="1">
          <mxGeometry x="183" y="209" width="33" height="22" as="geometry" />
        </mxCell>
        <mxCell id="WWQjKdEzX1iUmeXFVELN-24" value="" style="shape=parallelogram;perimeter=parallelogramPerimeter;whiteSpace=wrap;html=1;fixedSize=1;fillColor=#FFFF99;" vertex="1" parent="1">
          <mxGeometry x="255" y="200" width="44" height="39.5" as="geometry" />
        </mxCell>
        <mxCell id="WWQjKdEzX1iUmeXFVELN-25" value="ACK" style="text;html=1;align=center;verticalAlign=middle;resizable=0;points=[];autosize=1;strokeColor=none;fillColor=none;fontFamily=Times New Roman;fontSize=8;" vertex="1" parent="1">
          <mxGeometry x="259" y="209" width="35" height="22" as="geometry" />
        </mxCell>
        <mxCell id="WWQjKdEzX1iUmeXFVELN-26" value="" style="endArrow=classic;startArrow=classic;html=1;rounded=0;fontSize=2;strokeWidth=0.5;endSize=2;startSize=2;" edge="1" parent="1">
          <mxGeometry width="50" height="50" relative="1" as="geometry">
            <mxPoint x="239" y="245" as="sourcePoint" />
            <mxPoint x="255" y="245" as="targetPoint" />
          </mxGeometry>
        </mxCell>
        <mxCell id="WWQjKdEzX1iUmeXFVELN-27" value="SIFS" style="text;html=1;align=center;verticalAlign=middle;resizable=0;points=[];autosize=1;strokeColor=none;fillColor=none;fontFamily=Times New Roman;fontSize=8;" vertex="1" parent="1">
          <mxGeometry x="229" y="243" width="34" height="22" as="geometry" />
        </mxCell>
        <mxCell id="WWQjKdEzX1iUmeXFVELN-28" value="" style="endArrow=none;dashed=1;html=1;dashPattern=1 3;strokeWidth=2;rounded=0;" edge="1" parent="1">
          <mxGeometry width="50" height="50" relative="1" as="geometry">
            <mxPoint x="299" y="332" as="sourcePoint" />
            <mxPoint x="299" y="182" as="targetPoint" />
          </mxGeometry>
        </mxCell>
        <mxCell id="WWQjKdEzX1iUmeXFVELN-29" value="&lt;font style=&quot;font-size: 8px;&quot; face=&quot;Times New Roman&quot;&gt;The&amp;nbsp;channel is busy&lt;/font&gt;" style="rounded=1;whiteSpace=wrap;html=1;fillColor=#FF9999;opacity=50;" vertex="1" parent="1">
          <mxGeometry x="161" y="270" width="137" height="60" as="geometry" />
        </mxCell>
        <mxCell id="WWQjKdEzX1iUmeXFVELN-33" value="" style="endArrow=classic;startArrow=classic;html=1;rounded=0;fontSize=2;strokeWidth=0.5;endSize=2;startSize=2;" edge="1" parent="1">
          <mxGeometry width="50" height="50" relative="1" as="geometry">
            <mxPoint x="301" y="270" as="sourcePoint" />
            <mxPoint x="337" y="270" as="targetPoint" />
          </mxGeometry>
        </mxCell>
        <mxCell id="WWQjKdEzX1iUmeXFVELN-35" value="DIFS" style="text;html=1;align=center;verticalAlign=middle;resizable=0;points=[];autosize=1;strokeColor=none;fillColor=none;fontFamily=Times New Roman;fontSize=8;" vertex="1" parent="1">
          <mxGeometry x="301" y="248" width="35" height="22" as="geometry" />
        </mxCell>
        <mxCell id="WWQjKdEzX1iUmeXFVELN-36" value="" style="endArrow=classic;startArrow=classic;html=1;rounded=0;fontSize=2;strokeWidth=0.5;endSize=2;startSize=2;entryX=1.016;entryY=1.008;entryDx=0;entryDy=0;entryPerimeter=0;" edge="1" parent="1" target="WWQjKdEzX1iUmeXFVELN-40">
          <mxGeometry width="50" height="50" relative="1" as="geometry">
            <mxPoint x="337" y="270" as="sourcePoint" />
            <mxPoint x="373" y="270" as="targetPoint" />
          </mxGeometry>
        </mxCell>
        <mxCell id="WWQjKdEzX1iUmeXFVELN-37" value="" style="endArrow=classic;startArrow=classic;html=1;rounded=0;fontSize=2;strokeWidth=0.5;endSize=2;startSize=2;" edge="1" parent="1">
          <mxGeometry width="50" height="50" relative="1" as="geometry">
            <mxPoint x="120.5" y="193" as="sourcePoint" />
            <mxPoint x="156.5" y="193" as="targetPoint" />
          </mxGeometry>
        </mxCell>
        <mxCell id="WWQjKdEzX1iUmeXFVELN-38" value="DIFS" style="text;html=1;align=center;verticalAlign=middle;resizable=0;points=[];autosize=1;strokeColor=none;fillColor=none;fontFamily=Times New Roman;fontSize=8;" vertex="1" parent="1">
          <mxGeometry x="120.5" y="171" width="35" height="22" as="geometry" />
        </mxCell>
        <mxCell id="WWQjKdEzX1iUmeXFVELN-40" value="Random Backoff" style="text;html=1;align=center;verticalAlign=middle;resizable=0;points=[];autosize=1;strokeColor=none;fillColor=none;fontFamily=Times New Roman;fontSize=8;" vertex="1" parent="1">
          <mxGeometry x="331" y="248" width="73" height="22" as="geometry" />
        </mxCell>
        <mxCell id="WWQjKdEzX1iUmeXFVELN-42" value="" style="endArrow=none;dashed=1;html=1;dashPattern=1 3;strokeWidth=2;rounded=0;" edge="1" parent="1">
          <mxGeometry width="50" height="50" relative="1" as="geometry">
            <mxPoint x="406" y="330" as="sourcePoint" />
            <mxPoint x="406" y="180" as="targetPoint" />
          </mxGeometry>
        </mxCell>
      </root>
    </mxGraphModel>
  </diagram>
</mxfile>
